<?xml version="1.0" standalone="no"?>
<!DOCTYPE svg PUBLIC "-//W3C//DTD SVG 20010904//EN"
 "http://www.w3.org/TR/2001/REC-SVG-20010904/DTD/svg10.dtd">
<svg version="1.0" xmlns="http://www.w3.org/2000/svg"
 width="80px" height="40px" viewBox="100 325 700 250"
 preserveAspectRatio="xMidYMid meet">
<metadata>
Created by potrace 1.10, written by Peter Selinger 2001-2011
</metadata>
<g transform="translate(0.000000,900.000000) scale(0.100000,-0.100000)"
fill="#524fa0" stroke="none">
<path d="M1125 6118 c44 -24 108 -98 160 -186 6 -9 70 -106 143 -215 72 -109
132 -200 132 -202 0 -1 47 -73 105 -159 58 -87 105 -161 105 -166 0 -4 4 -10
8 -12 4 -1 19 -21 32 -43 13 -22 28 -44 33 -50 21 -26 137 -208 137 -215 0 -5
3 -10 8 -12 9 -4 52 -65 52 -74 0 -3 14 -23 30 -44 17 -21 30 -41 30 -44 0
-10 39 -46 49 -46 5 0 17 -8 27 -17 16 -16 51 -18 397 -21 208 -2 386 -1 395
3 13 5 10 10 -14 24 -39 24 -70 64 -182 236 -50 77 -95 145 -100 150 -4 6 -19
28 -32 50 -13 22 -28 45 -33 50 -18 23 -77 117 -77 125 0 5 -3 10 -7 12 -11 5
-53 66 -53 77 0 5 -3 11 -7 13 -8 3 -53 64 -53 71 0 2 -74 115 -165 251 -91
136 -165 249 -165 251 0 8 -91 136 -108 152 -56 53 -55 53 -475 53 -291 -1
-387 -3 -372 -12z"/>
<path d="M2426 6065 c35 -36 64 -72 64 -79 0 -8 3 -16 8 -18 7 -3 52 -64 52
-71 0 -2 61 -95 135 -206 74 -111 135 -205 135 -208 0 -3 14 -22 30 -43 17
-21 30 -40 30 -43 0 -3 34 -55 75 -116 41 -62 75 -116 75 -121 0 -6 3 -10 8
-10 4 0 16 -17 27 -37 11 -20 25 -41 30 -47 6 -6 22 -29 35 -51 13 -22 28 -44
33 -50 18 -23 77 -117 77 -125 0 -5 3 -10 8 -12 8 -4 52 -65 52 -73 0 -9 20
-33 61 -74 71 -71 36 -66 458 -69 262 -2 387 0 394 7 8 8 8 11 0 11 -22 0 -81
66 -147 163 -36 54 -66 102 -66 107 0 6 -3 10 -8 10 -4 0 -16 17 -27 37 -11
20 -25 41 -30 47 -6 6 -22 29 -35 51 -13 22 -30 46 -37 53 -7 7 -13 18 -13 23
0 5 -5 15 -10 22 -41 48 -50 62 -50 73 0 7 -3 14 -7 16 -11 5 -53 66 -53 77 0
5 -3 11 -7 13 -8 3 -53 64 -53 71 0 2 -61 95 -135 206 -74 111 -135 205 -135
208 0 3 -13 22 -30 43 -16 21 -30 40 -30 43 0 3 -27 45 -60 93 -41 60 -73 96
-104 116 l-46 28 -384 0 -384 0 64 -65z"/>
<path d="M3653 6078 c55 -56 97 -110 97 -128 0 -5 4 -10 8 -10 5 0 14 -10 21
-22 22 -43 32 -57 463 -706 59 -90 108 -167 108 -172 0 -4 4 -10 8 -12 4 -1
19 -21 32 -43 13 -22 28 -44 33 -50 18 -23 77 -117 77 -125 0 -5 3 -10 8 -12
8 -3 52 -64 52 -73 0 -12 48 -59 85 -84 l40 -26 383 -3 c210 -2 382 0 382 3 0
3 -19 25 -43 48 -42 41 -147 188 -147 206 0 5 -4 11 -8 13 -4 2 -19 21 -32 43
-13 22 -28 45 -33 50 -18 23 -77 117 -77 125 0 5 -3 10 -7 12 -11 5 -53 66
-53 77 0 5 -3 11 -7 13 -8 3 -53 64 -53 71 0 2 -74 115 -165 251 -91 136 -165
249 -165 250 0 2 -43 68 -96 147 -72 107 -108 152 -142 176 l-47 32 -388 1
-387 0 53 -52z"/>
<path d="M3530 4365 c0 -3 20 -25 43 -48 24 -23 67 -78 95 -122 28 -44 55 -84
59 -90 5 -5 20 -28 33 -50 13 -22 30 -46 37 -53 7 -7 13 -18 13 -23 0 -5 5
-15 10 -22 41 -48 50 -62 50 -73 0 -7 3 -14 8 -16 10 -5 52 -66 52 -77 0 -5 3
-11 8 -13 9 -4 52 -65 52 -74 0 -3 14 -23 30 -44 17 -21 30 -40 30 -43 0 -2
47 -75 105 -161 58 -87 105 -160 105 -163 0 -3 14 -22 30 -43 17 -21 30 -40
30 -43 0 -3 34 -55 75 -116 41 -62 75 -116 75 -121 0 -6 4 -10 9 -10 5 0 12
-9 16 -19 3 -11 30 -36 59 -55 l54 -36 378 0 c209 0 386 0 394 0 8 0 1 9 -17
20 -31 18 -118 119 -131 150 -3 8 -8 17 -11 20 -11 9 -51 69 -51 76 0 3 -13
23 -30 44 -16 21 -30 40 -30 42 0 3 -61 96 -135 208 -74 111 -135 205 -135
207 0 3 -13 22 -30 43 -16 21 -30 40 -30 43 0 3 -20 35 -45 71 -25 37 -45 70
-45 75 0 5 -3 11 -7 13 -11 5 -53 66 -53 77 0 5 -4 11 -8 13 -4 2 -19 21 -32
43 -13 22 -28 45 -33 50 -18 22 -137 207 -137 213 0 4 -23 27 -50 53 -34 32
-62 48 -88 53 -46 7 -752 8 -752 1z"/>
<path d="M4770 4363 c0 -3 17 -22 39 -42 38 -36 171 -223 171 -241 0 -6 3 -10
8 -10 4 0 16 -17 27 -37 11 -20 25 -41 30 -47 6 -6 22 -29 35 -51 13 -22 30
-46 37 -53 7 -7 13 -19 13 -27 0 -7 3 -15 8 -17 10 -5 52 -66 52 -77 0 -5 3
-11 8 -13 10 -5 52 -66 52 -77 0 -5 3 -11 8 -13 7 -3 52 -64 52 -71 0 -2 61
-95 135 -206 74 -111 135 -204 135 -206 0 -7 153 -231 174 -254 11 -13 38 -34
58 -47 l38 -24 392 0 c388 0 393 0 362 19 -28 17 -114 109 -114 122 0 3 -74
117 -165 253 -91 136 -165 249 -165 250 0 2 -47 74 -105 160 -58 87 -105 161
-105 166 0 4 -4 10 -8 12 -4 2 -19 21 -32 43 -13 22 -28 45 -33 50 -21 26
-137 208 -137 215 0 5 -3 10 -7 12 -9 4 -53 65 -53 73 0 10 -22 36 -72 85 -34
34 -58 49 -85 54 -51 8 -753 8 -753 -1z"/>
<path d="M6010 4362 c0 -5 11 -17 24 -26 24 -15 116 -128 116 -141 0 -4 14
-24 30 -45 17 -21 30 -40 30 -43 0 -3 20 -35 45 -71 25 -37 45 -70 45 -75 0
-5 4 -11 8 -13 4 -1 19 -21 32 -43 13 -22 28 -44 33 -50 18 -23 77 -117 77
-125 0 -5 3 -10 8 -12 10 -5 52 -66 52 -77 0 -5 3 -11 8 -13 9 -4 52 -65 52
-74 0 -3 14 -23 30 -44 17 -21 30 -41 30 -45 0 -4 14 -24 30 -45 17 -21 30
-40 30 -43 0 -2 47 -75 105 -161 58 -87 105 -159 105 -161 0 -8 91 -135 108
-152 56 -53 55 -53 475 -53 291 1 387 3 372 12 -44 24 -106 96 -160 186 -6 9
-69 105 -140 212 -72 107 -131 198 -133 202 -2 5 -51 78 -108 164 -57 85 -104
159 -104 164 0 4 -4 10 -8 12 -4 2 -19 21 -32 43 -13 22 -28 45 -33 50 -18 23
-77 117 -77 125 0 5 -3 10 -7 12 -11 5 -53 66 -53 77 0 5 -3 11 -7 13 -10 4
-53 65 -53 74 0 3 -13 23 -30 44 -16 21 -30 41 -30 44 0 8 -38 46 -47 46 -3 0
-15 8 -26 18 -17 15 -54 17 -408 20 -241 2 -389 0 -389 -6z"/>
</g>
</svg>
